<svg width="0" height="0" class="hidden">
  <symbol fill="none" xmlns="http://www.w3.org/2000/svg" viewBox="0 0 17 14" id="accounts">
    <path d="M4.93193 5.83333H2.86072V9.91667H4.93193V5.83333Z" fill="white"></path>
    <path d="M9.41948 5.83333H7.34827V9.91667H9.41948V5.83333Z" fill="white"></path>
    <path d="M15.2879 11.0833H1.47986V12.8333H15.2879V11.0833Z" fill="white"></path>
    <path d="M13.9071 5.83333H11.8359V9.91667H13.9071V5.83333Z" fill="white"></path>
    <path d="M8.38389 0.583332L1.47986 3.5V4.66667H15.2879V3.5L8.38389 0.583332Z" fill="white"></path>
  </symbol>


  <symbol xmlns="http://www.w3.org/2000/svg" viewBox="0 0 15 14" id="inventory">
    <path d="M12.0204 1.16667H2.40407C1.80305 1.16667 1.20203 1.69167 1.20203 2.33333V4.08917C1.20203 4.50917 1.46047 4.87083 1.80305 5.075V11.6667C1.80305 12.3083 2.46417 12.8333 3.00509 12.8333H11.4194C11.9603 12.8333 12.6214 12.3083 12.6214 11.6667V5.075C12.964 4.87083 13.2224 4.50917 13.2224 4.08917V2.33333C13.2224 1.69167 12.6214 1.16667 12.0204 1.16667ZM9.0153 8.16667H5.40917V7H9.0153V8.16667ZM12.0204 4.08333H2.40407V2.33333L12.0204 2.32167V4.08333Z"></path>
  </symbol>


  <symbol fill="none" xmlns="http://www.w3.org/2000/svg" viewBox="0 0 16 14" id="staff">
    <g clip-path="url(#clip0_8_17077)">
      <path fill-rule="evenodd" clip-rule="evenodd" d="M10.885 7.65916C11.7633 8.20166 12.3787 8.93666 12.3787 9.91666V11.6667H14.9431V9.91666C14.9431 8.645 12.6544 7.8925 10.885 7.65916Z" fill="white"></path>
      <path d="M5.9678 7C7.38405 7 8.53216 5.95533 8.53216 4.66667C8.53216 3.378 7.38405 2.33333 5.9678 2.33333C4.55154 2.33333 3.40344 3.378 3.40344 4.66667C3.40344 5.95533 4.55154 7 5.9678 7Z" fill="white"></path>
      <path fill-rule="evenodd" clip-rule="evenodd" d="M9.81432 7C11.2311 7 12.3787 5.95583 12.3787 4.66667C12.3787 3.3775 11.2311 2.33333 9.81432 2.33333C9.51301 2.33333 9.23093 2.39167 8.96167 2.47333C9.49377 3.07417 9.81432 3.83833 9.81432 4.66667C9.81432 5.495 9.49377 6.25917 8.96167 6.86C9.23093 6.94167 9.51301 7 9.81432 7Z" fill="white"></path>
      <path fill-rule="evenodd" clip-rule="evenodd" d="M5.96782 7.58333C4.25612 7.58333 0.839111 8.365 0.839111 9.91667V11.6667H11.0965V9.91667C11.0965 8.365 7.67953 7.58333 5.96782 7.58333Z" fill="white"></path>
    </g>
    <defs>
      <clipPath id="clip0_8_17077">
        <rect width="15.3861" height="14" fill="white" transform="translate(0.197998)"></rect>
      </clipPath>
    </defs>
  </symbol>


  <symbol fill="none" xmlns="http://www.w3.org/2000/svg" viewBox="0 0 16 14" id="employee">
    <g clip-path="url(#clip0_8_17080)">
      <path d="M10.776 7.58333C10.0067 7.58333 8.80785 7.78166 7.89109 8.16666C6.97433 7.77583 5.7755 7.58333 5.00619 7.58333C3.61503 7.58333 0.839111 8.21333 0.839111 9.47916V11.0833H14.9431V9.47916C14.9431 8.21333 12.1672 7.58333 10.776 7.58333ZM8.21164 10.2083H1.80074V9.47916C1.80074 9.16416 3.44193 8.45833 5.00619 8.45833C6.57045 8.45833 8.21164 9.16416 8.21164 9.47916V10.2083ZM13.9814 10.2083H9.17327V9.47916C9.17327 9.21083 9.04505 8.9775 8.8399 8.7675C9.40406 8.5925 10.0964 8.45833 10.776 8.45833C12.3402 8.45833 13.9814 9.16416 13.9814 9.47916V10.2083ZM5.00619 7C6.24349 7 7.25 6.08416 7.25 4.95833C7.25 3.8325 6.24349 2.91666 5.00619 2.91666C3.76889 2.91666 2.76238 3.8325 2.76238 4.95833C2.76238 6.08416 3.76889 7 5.00619 7ZM5.00619 3.79166C5.71139 3.79166 6.28837 4.31666 6.28837 4.95833C6.28837 5.6 5.71139 6.125 5.00619 6.125C4.30099 6.125 3.72401 5.6 3.72401 4.95833C3.72401 4.31666 4.30099 3.79166 5.00619 3.79166ZM10.776 7C12.0133 7 13.0198 6.08416 13.0198 4.95833C13.0198 3.8325 12.0133 2.91666 10.776 2.91666C9.53869 2.91666 8.53218 3.8325 8.53218 4.95833C8.53218 6.08416 9.53869 7 10.776 7ZM10.776 3.79166C11.4812 3.79166 12.0582 4.31666 12.0582 4.95833C12.0582 5.6 11.4812 6.125 10.776 6.125C10.0708 6.125 9.49381 5.6 9.49381 4.95833C9.49381 4.31666 10.0708 3.79166 10.776 3.79166Z" fill="white"></path>
    </g>
    <defs>
      <clipPath id="clip0_8_17080">
        <rect width="15.3861" height="14" fill="white" transform="translate(0.197998)"></rect>
      </clipPath>
    </defs>
  </symbol>
</svg>