<svg width="16" height="14" viewBox="0 0 16 14" fill="none" xmlns="http://www.w3.org/2000/svg">
<g clip-path="url(#clip0_8_17077)">
<path fill-rule="evenodd" clip-rule="evenodd" d="M10.885 7.65916C11.7633 8.20166 12.3787 8.93666 12.3787 9.91666V11.6667H14.9431V9.91666C14.9431 8.645 12.6544 7.8925 10.885 7.65916Z" fill="white"/>
<path d="M5.9678 7C7.38405 7 8.53216 5.95533 8.53216 4.66667C8.53216 3.378 7.38405 2.33333 5.9678 2.33333C4.55154 2.33333 3.40344 3.378 3.40344 4.66667C3.40344 5.95533 4.55154 7 5.9678 7Z" fill="white"/>
<path fill-rule="evenodd" clip-rule="evenodd" d="M9.81432 7C11.2311 7 12.3787 5.95583 12.3787 4.66667C12.3787 3.3775 11.2311 2.33333 9.81432 2.33333C9.51301 2.33333 9.23093 2.39167 8.96167 2.47333C9.49377 3.07417 9.81432 3.83833 9.81432 4.66667C9.81432 5.495 9.49377 6.25917 8.96167 6.86C9.23093 6.94167 9.51301 7 9.81432 7Z" fill="white"/>
<path fill-rule="evenodd" clip-rule="evenodd" d="M5.96782 7.58333C4.25612 7.58333 0.839111 8.365 0.839111 9.91667V11.6667H11.0965V9.91667C11.0965 8.365 7.67953 7.58333 5.96782 7.58333Z" fill="white"/>
</g>
<defs>
<clipPath id="clip0_8_17077">
<rect width="15.3861" height="14" fill="white" transform="translate(0.197998)"/>
</clipPath>
</defs>
</svg>
