<svg width="16" height="14" viewBox="0 0 16 14" fill="none" xmlns="http://www.w3.org/2000/svg">
<g clip-path="url(#clip0_8_17080)">
<path d="M10.776 7.58333C10.0067 7.58333 8.80785 7.78166 7.89109 8.16666C6.97433 7.77583 5.7755 7.58333 5.00619 7.58333C3.61503 7.58333 0.839111 8.21333 0.839111 9.47916V11.0833H14.9431V9.47916C14.9431 8.21333 12.1672 7.58333 10.776 7.58333ZM8.21164 10.2083H1.80074V9.47916C1.80074 9.16416 3.44193 8.45833 5.00619 8.45833C6.57045 8.45833 8.21164 9.16416 8.21164 9.47916V10.2083ZM13.9814 10.2083H9.17327V9.47916C9.17327 9.21083 9.04505 8.9775 8.8399 8.7675C9.40406 8.5925 10.0964 8.45833 10.776 8.45833C12.3402 8.45833 13.9814 9.16416 13.9814 9.47916V10.2083ZM5.00619 7C6.24349 7 7.25 6.08416 7.25 4.95833C7.25 3.8325 6.24349 2.91666 5.00619 2.91666C3.76889 2.91666 2.76238 3.8325 2.76238 4.95833C2.76238 6.08416 3.76889 7 5.00619 7ZM5.00619 3.79166C5.71139 3.79166 6.28837 4.31666 6.28837 4.95833C6.28837 5.6 5.71139 6.125 5.00619 6.125C4.30099 6.125 3.72401 5.6 3.72401 4.95833C3.72401 4.31666 4.30099 3.79166 5.00619 3.79166ZM10.776 7C12.0133 7 13.0198 6.08416 13.0198 4.95833C13.0198 3.8325 12.0133 2.91666 10.776 2.91666C9.53869 2.91666 8.53218 3.8325 8.53218 4.95833C8.53218 6.08416 9.53869 7 10.776 7ZM10.776 3.79166C11.4812 3.79166 12.0582 4.31666 12.0582 4.95833C12.0582 5.6 11.4812 6.125 10.776 6.125C10.0708 6.125 9.49381 5.6 9.49381 4.95833C9.49381 4.31666 10.0708 3.79166 10.776 3.79166Z" fill="white"/>
</g>
<defs>
<clipPath id="clip0_8_17080">
<rect width="15.3861" height="14" fill="white" transform="translate(0.197998)"/>
</clipPath>
</defs>
</svg>
