<svg width="29" height="29" viewBox="0 0 29 29" fill="none" xmlns="http://www.w3.org/2000/svg">
<path d="M14.5 0C6.49185 0 0 6.49185 0 14.5C0 22.5082 6.49185 29 14.5 29C22.5082 29 29 22.5082 29 14.5C29 6.49185 22.5082 0 14.5 0ZM14.5 2.80645C20.9626 2.80645 26.1935 8.03645 26.1935 14.5C26.1935 20.9626 20.9636 26.1935 14.5 26.1935C8.03744 26.1935 2.80645 20.9636 2.80645 14.5C2.80645 8.03744 8.03645 2.80645 14.5 2.80645ZM22.6974 10.4229L21.3798 9.0946C21.1069 8.81951 20.6627 8.8177 20.3876 9.09062L12.1231 17.2887L8.62715 13.7645C8.35428 13.4894 7.91004 13.4876 7.63495 13.7604L6.30662 15.0781C6.03153 15.3509 6.02972 15.7952 6.30265 16.0703L11.6104 21.4211C11.8833 21.6962 12.3275 21.698 12.6026 21.425L22.6935 11.4151C22.9685 11.1422 22.9703 10.698 22.6974 10.4229Z" fill="black"/>
</svg>
