<svg width="28" height="31" viewBox="0 0 28 31" fill="none" xmlns="http://www.w3.org/2000/svg">
<path d="M18.3978 5.5034H20.6975C21.3075 5.5034 21.8924 5.76321 22.3237 6.22567C22.7549 6.68814 22.9972 7.31537 22.9972 7.96939V25.2313C22.9972 25.8853 22.7549 26.5125 22.3237 26.975C21.8924 27.4375 21.3075 27.6973 20.6975 27.6973H6.89931C6.28939 27.6973 5.70445 27.4375 5.27318 26.975C4.8419 26.5125 4.59961 25.8853 4.59961 25.2313V7.96939C4.59961 7.31537 4.8419 6.68814 5.27318 6.22567C5.70445 5.76321 6.28939 5.5034 6.89931 5.5034H9.19902" stroke="black" stroke-width="2" stroke-linecap="round" stroke-linejoin="round"/>
<path d="M17.2477 3.03741H10.3486C9.71354 3.03741 9.19873 3.58944 9.19873 4.27041V6.73639C9.19873 7.41736 9.71354 7.96939 10.3486 7.96939H17.2477C17.8827 7.96939 18.3975 7.41736 18.3975 6.73639V4.27041C18.3975 3.58944 17.8827 3.03741 17.2477 3.03741Z" stroke="black" stroke-width="2" stroke-linecap="round" stroke-linejoin="round"/>
</svg>
