<svg width="0" height="0" class="hidden">
  <symbol xmlns="http://www.w3.org/2000/svg" viewBox="0 0 512 512" id="accounts">
    <path d="M64 32C28.7 32 0 60.7 0 96V416c0 35.3 28.7 64 64 64H448c35.3 0 64-28.7 64-64V192c0-35.3-28.7-64-64-64H80c-8.8 0-16-7.2-16-16s7.2-16 16-16H448c17.7 0 32-14.3 32-32s-14.3-32-32-32H64zM416 336c-17.7 0-32-14.3-32-32s14.3-32 32-32s32 14.3 32 32s-14.3 32-32 32z"></path>
  </symbol>
  <symbol xmlns="http://www.w3.org/2000/svg" viewBox="0 0 384 512" id="accounts-invoice">
    <path d="M64 0C28.7 0 0 28.7 0 64V448c0 35.3 28.7 64 64 64H320c35.3 0 64-28.7 64-64V160H256c-17.7 0-32-14.3-32-32V0H64zM256 0V128H384L256 0zM64 80c0-8.8 7.2-16 16-16h64c8.8 0 16 7.2 16 16s-7.2 16-16 16H80c-8.8 0-16-7.2-16-16zm0 64c0-8.8 7.2-16 16-16h64c8.8 0 16 7.2 16 16s-7.2 16-16 16H80c-8.8 0-16-7.2-16-16zm128 72c8.8 0 16 7.2 16 16v17.3c8.5 1.2 16.7 3.1 24.1 5.1c8.5 2.3 13.6 11 11.3 19.6s-11 13.6-19.6 11.3c-11.1-3-22-5.2-32.1-5.3c-8.4-.1-17.4 1.8-23.6 5.5c-5.7 3.4-8.1 7.3-8.1 12.8c0 3.7 1.3 6.5 7.3 10.1c6.9 4.1 16.6 7.1 29.2 10.9l.5 .1 0 0 0 0c11.3 3.4 25.3 7.6 36.3 14.6c12.1 7.6 22.4 19.7 22.7 38.2c.3 19.3-9.6 33.3-22.9 41.6c-7.7 4.8-16.4 7.6-25.1 9.1V440c0 8.8-7.2 16-16 16s-16-7.2-16-16V422.2c-11.2-2.1-21.7-5.7-30.9-8.9l0 0c-2.1-.7-4.2-1.4-6.2-2.1c-8.4-2.8-12.9-11.9-10.1-20.2s11.9-12.9 20.2-10.1c2.5 .8 4.8 1.6 7.1 2.4l0 0 0 0 0 0c13.6 4.6 24.6 8.4 36.3 8.7c9.1 .3 17.9-1.7 23.7-5.3c5.1-3.2 7.9-7.3 7.8-14c-.1-4.6-1.8-7.8-7.7-11.6c-6.8-4.3-16.5-7.4-29-11.2l-1.6-.5 0 0c-11-3.3-24.3-7.3-34.8-13.7c-12-7.2-22.6-18.9-22.7-37.3c-.1-19.4 10.8-32.8 23.8-40.5c7.5-4.4 15.8-7.2 24.1-8.7V232c0-8.8 7.2-16 16-16z"></path>
  </symbol>
  <symbol xmlns="http://www.w3.org/2000/svg" viewBox="0 0 384 512" id="invoice">
    <path d="M64 0C28.7 0 0 28.7 0 64V448c0 35.3 28.7 64 64 64H320c35.3 0 64-28.7 64-64V160H256c-17.7 0-32-14.3-32-32V0H64zM256 0V128H384L256 0zM80 64h64c8.8 0 16 7.2 16 16s-7.2 16-16 16H80c-8.8 0-16-7.2-16-16s7.2-16 16-16zm0 64h64c8.8 0 16 7.2 16 16s-7.2 16-16 16H80c-8.8 0-16-7.2-16-16s7.2-16 16-16zm16 96H288c17.7 0 32 14.3 32 32v64c0 17.7-14.3 32-32 32H96c-17.7 0-32-14.3-32-32V256c0-17.7 14.3-32 32-32zm0 32v64H288V256H96zM240 416h64c8.8 0 16 7.2 16 16s-7.2 16-16 16H240c-8.8 0-16-7.2-16-16s7.2-16 16-16z"></path>
  </symbol>
  <symbol xmlns="http://www.w3.org/2000/svg" viewBox="0 0 24 24" id="overview">
    <path fill="none" d="M0 0h24v24H0z"></path>
    <path d="M20 3a1 1 0 0 1 1 1v16a1 1 0 0 1-1 1H4a1 1 0 0 1-1-1V4a1 1 0 0 1 1-1h16zm-9 10H5v6h6v-6zm2 6h6V5h-6v14zM11 5H5v6h6V5z"></path>
  </symbol>
  <symbol xmlns="http://www.w3.org/2000/svg" viewBox="0 0 24 24" id="products">
    <g>
      <g>
        <rect  opacity="0"></rect>
        <path d="M20.66 7.26c0-.07-.1-.14-.15-.21l-.09-.1a2.5 2.5 0 0 0-.86-.68l-6.4-3a2.7 2.7 0 0 0-2.26 0l-6.4 3a2.6 2.6 0 0 0-.86.68L3.52 7a1 1 0 0 0-.15.2A2.39 2.39 0 0 0 3 8.46v7.06a2.49 2.49 0 0 0 1.46 2.26l6.4 3a2.7 2.7 0 0 0 2.27 0l6.4-3A2.49 2.49 0 0 0 21 15.54V8.46a2.39 2.39 0 0 0-.34-1.2zm-8.95-2.2a.73.73 0 0 1 .58 0l5.33 2.48L12 10.15 6.38 7.54zM5.3 16a.47.47 0 0 1-.3-.43V9.1l6 2.79v6.72zm13.39 0L13 18.61v-6.72l6-2.79v6.44a.48.48 0 0 1-.31.46z"></path>
      </g>
    </g>
  </symbol>
  <symbol xmlns="http://www.w3.org/2000/svg" fill="none" stroke="currentColor" stroke-width="2" stroke-linecap="round" stroke-linejoin="round" viewBox="0 0 24 24" id="users">
    <path d="M17 21v-2a4 4 0 0 0-4-4H5a4 4 0 0 0-4 4v2"></path>
    <circle cx="9" cy="7" r="4"></circle>
    <path d="M23 21v-2a4 4 0 0 0-3-3.87"></path>
    <path d="M16 3.13a4 4 0 0 1 0 7.75"></path>
  </symbol>

  <symbol xmlns="http://www.w3.org/2000/svg" viewBox="0 0 24 24" id='inventory'>
    <path fill="none" d="M0 0h24v24H0z"/>
    <path d="M21 3a1 1 0 0 1 1 1v16a1 1 0 0 1-1 1H3a1 1 0 0 1-1-1V4a1 1 0 0 1 1-1h18zM11 13H4v6h7v-6zm9 0h-7v6h7v-6zm-9-8H4v6h7V5zm9 0h-7v6h7V5z"/>
  </symbol>

  <symbol viewBox="0 0 30 30" fill="none" xmlns="http://www.w3.org/2000/svg" id='dollarSign'>
    <path d="M15 1.25V28.75" stroke="black" stroke-width="2" stroke-linecap="round" stroke-linejoin="round"/>
    <path d="M21.25 6.25H11.875C10.7147 6.25 9.60188 6.71094 8.78141 7.53141C7.96094 8.35188 7.5 9.46468 7.5 10.625C7.5 11.7853 7.96094 12.8981 8.78141 13.7186C9.60188 14.5391 10.7147 15 11.875 15H18.125C19.2853 15 20.3981 15.4609 21.2186 16.2814C22.0391 17.1019 22.5 18.2147 22.5 19.375C22.5 20.5353 22.0391 21.6481 21.2186 22.4686C20.3981 23.2891 19.2853 23.75 18.125 23.75H7.5" stroke="black" stroke-width="2" stroke-linecap="round" stroke-linejoin="round"/>
  </symbol>

  <symbol viewBox="0 0 28 31" fill="none" xmlns="http://www.w3.org/2000/svg" id='clipBoard'>
    <path d="M18.3978 5.5034H20.6975C21.3075 5.5034 21.8924 5.76321 22.3237 6.22567C22.7549 6.68814 22.9972 7.31537 22.9972 7.96939V25.2313C22.9972 25.8853 22.7549 26.5125 22.3237 26.975C21.8924 27.4375 21.3075 27.6973 20.6975 27.6973H6.89931C6.28939 27.6973 5.70445 27.4375 5.27318 26.975C4.8419 26.5125 4.59961 25.8853 4.59961 25.2313V7.96939C4.59961 7.31537 4.8419 6.68814 5.27318 6.22567C5.70445 5.76321 6.28939 5.5034 6.89931 5.5034H9.19902" stroke="black" stroke-width="2" stroke-linecap="round" stroke-linejoin="round"/>
    <path d="M17.2477 3.03741H10.3486C9.71354 3.03741 9.19873 3.58944 9.19873 4.27041V6.73639C9.19873 7.41736 9.71354 7.96939 10.3486 7.96939H17.2477C17.8827 7.96939 18.3975 7.41736 18.3975 6.73639V4.27041C18.3975 3.58944 17.8827 3.03741 17.2477 3.03741Z" stroke="black" stroke-width="2" stroke-linecap="round" stroke-linejoin="round"/>
  </symbol>

  <symbol viewBox="0 0 29 29" fill="none" xmlns="http://www.w3.org/2000/svg" id='checkCircle'>
    <path d="M14.5 0C6.49185 0 0 6.49185 0 14.5C0 22.5082 6.49185 29 14.5 29C22.5082 29 29 22.5082 29 14.5C29 6.49185 22.5082 0 14.5 0ZM14.5 2.80645C20.9626 2.80645 26.1935 8.03645 26.1935 14.5C26.1935 20.9626 20.9636 26.1935 14.5 26.1935C8.03744 26.1935 2.80645 20.9636 2.80645 14.5C2.80645 8.03744 8.03645 2.80645 14.5 2.80645ZM22.6974 10.4229L21.3798 9.0946C21.1069 8.81951 20.6627 8.8177 20.3876 9.09062L12.1231 17.2887L8.62715 13.7645C8.35428 13.4894 7.91004 13.4876 7.63495 13.7604L6.30662 15.0781C6.03153 15.3509 6.02972 15.7952 6.30265 16.0703L11.6104 21.4211C11.8833 21.6962 12.3275 21.698 12.6026 21.425L22.6935 11.4151C22.9685 11.1422 22.9703 10.698 22.6974 10.4229Z" fill="black"/>
  </symbol>

</svg>